<svg width="200" height="231" viewBox="0 0 200 231" fill="none" xmlns="http://www.w3.org/2000/svg">
<path d="M90.4891 158.14C84.619 151.375 86.5198 137.902 90.4332 129.516C94.9615 119.677 100.384 120.739 103.291 112.8C108.77 98.0969 92.3339 88.4811 96.6946 73.2188C100.273 60.696 112.572 62.3731 115.87 48.3967C118.274 38.2777 112.963 32.5754 117.939 24.4131C118.386 23.7423 123.082 16.3068 130.406 16.0832C137.841 15.8595 143.655 23.1273 146.115 28.4383C150.644 38.2218 144.382 42.862 145.5 56.4471C147.01 74.9519 159.477 77.4118 157.744 91.2764C156.346 102.737 147.513 103.687 146.171 116.434C144.941 128.23 152.097 131.696 150.532 139.579C146.954 157.692 102.509 171.892 90.4891 158.14Z" fill="url(#paint0_linear_7538_14774)"/>
<path opacity="0.7" d="M98.7693 168.93C98.7134 168.93 98.6575 168.874 98.6016 168.818C98.6016 168.762 98.6016 168.65 98.7134 168.65C106.317 166.358 113.081 162.613 118.839 157.469C124.318 152.606 129.965 147.574 131.474 139.971C132.592 134.213 130.691 130.523 128.232 125.827C125.884 121.242 122.921 115.54 122.194 106.148C121.747 100.781 121.243 94.0722 124.654 87.0281C126.61 82.8911 128.902 80.8784 130.915 79.0895C133.04 77.1887 134.717 75.7351 135.22 72.4926C136.058 67.2374 134.102 63.2122 131.81 58.5721C130.412 55.7209 128.958 52.7019 127.896 49.0681C124.989 38.7814 127.784 26.5381 136.282 12.7852C136.338 12.7293 136.394 12.6734 136.506 12.7293C136.562 12.7852 136.617 12.8411 136.562 12.953C128.12 26.6499 125.325 38.7814 128.232 49.0122C129.238 52.646 130.691 55.609 132.145 58.4602C134.437 63.1563 136.45 67.2374 135.555 72.5485C134.996 75.9028 133.207 77.4682 131.139 79.3131C129.126 81.1021 126.89 83.1147 124.933 87.1399C121.579 94.1281 122.082 100.781 122.529 106.092C123.256 115.428 126.219 121.131 128.567 125.659C131.027 130.411 132.984 134.157 131.81 140.027C130.3 147.742 124.598 152.773 119.119 157.693C113.193 162.892 106.428 166.638 98.7693 168.93Z" fill="white"/>
<path opacity="0.7" d="M123.367 90.6617C123.311 90.6617 123.255 90.6617 123.255 90.6058C114.366 77.6357 111.291 66.9018 110.341 60.1931C109.279 52.8694 110.341 48.5647 110.341 48.5088C110.341 48.4529 110.453 48.397 110.508 48.397C110.564 48.397 110.62 48.5088 110.62 48.5647C110.62 48.6206 109.558 52.8694 110.62 60.1372C111.627 66.8459 114.645 77.5239 123.479 90.4381C123.535 90.494 123.535 90.6058 123.423 90.6617C123.423 90.6617 123.423 90.6617 123.367 90.6617Z" fill="white"/>
<path opacity="0.7" d="M123.48 113.863C123.424 113.863 123.368 113.807 123.368 113.751C123.312 113.695 123.368 113.583 123.424 113.527C130.972 109.949 137.121 105.309 141.817 99.7186C145.563 95.2461 148.358 90.2146 150.091 84.6799C153.11 75.2877 152.048 67.7405 152.048 67.6846C152.048 67.6287 152.104 67.5168 152.16 67.5168C152.216 67.5168 152.328 67.5728 152.328 67.6287C152.328 67.6846 153.39 75.3437 150.371 84.7358C148.582 90.2705 145.787 95.3579 142.041 99.8304C137.345 105.421 131.139 110.117 123.536 113.695C123.536 113.863 123.48 113.863 123.48 113.863Z" fill="white"/>
<path opacity="0.7" d="M124.988 152.493H124.932C109.334 143.493 102.737 132.367 99.9978 124.652C96.9789 116.266 97.7057 109.949 97.7057 109.893C97.7057 109.837 97.8175 109.781 97.8734 109.781C97.9293 109.781 98.0411 109.837 97.9852 109.949C97.9852 110.005 97.3143 116.266 100.277 124.596C103.017 132.255 109.558 143.325 125.099 152.27C125.155 152.326 125.211 152.382 125.155 152.493C125.099 152.437 125.044 152.493 124.988 152.493Z" fill="white"/>
<path opacity="0.7" d="M127.895 47.3347C127.839 47.3347 127.783 47.3347 127.783 47.2788C127.728 47.2229 127.783 47.111 127.839 47.0551C139.747 39.1165 143.549 28.718 144.555 21.3944C145.673 13.4558 143.996 7.30614 143.94 7.25024C143.94 7.19433 143.94 7.08252 144.052 7.08252C144.108 7.08252 144.22 7.08252 144.22 7.19433C144.22 7.25024 145.953 13.4558 144.835 21.4503C143.772 28.8299 139.971 39.3401 127.951 47.3347H127.895Z" fill="white"/>
<path d="M126.927 214.38C125.138 214.492 121.169 213.15 120.274 212.368C114.348 207.224 102.608 198.28 101.546 190.061C101.378 188.664 107.304 186.204 107.975 184.75C111.385 182.235 112.727 181.564 114.796 177.594C120.945 165.854 98.8066 150.257 118.989 139.411C133.748 131.472 148.115 134.323 141.742 110.284C135.369 86.1885 146.215 37.9978 175.286 50.0734C191.946 57.0057 180.932 80.6539 191.442 94.5185C201.45 107.712 197.592 120.85 183.783 132.534C169.975 144.219 179.535 149.362 186.69 162.332C195.244 177.93 170.254 185.757 158.402 188.384C148.898 190.565 126.033 202.361 126.927 214.38Z" fill="url(#paint1_linear_7538_14774)"/>
<path d="M111.274 201.913L111.05 201.634C157.788 166.637 178.696 107.768 166.956 44.0356L167.347 43.9797C172.882 74.1688 170.981 104.414 161.869 131.472C152.309 159.928 134.81 184.303 111.274 201.913Z" fill="#FCFDFE"/>
<path d="M190.995 168.426C175.174 166.413 150.24 171.054 135.369 178.769L135.201 178.433C150.072 170.662 175.118 166.022 191.051 168.035L190.995 168.426Z" fill="#FCFDFE"/>
<path d="M120.389 194.925L120.109 194.702C125.364 187.769 126.874 178.433 124.694 167.028C123.072 158.642 119.494 149.306 114.127 139.355L114.463 139.187C119.886 149.194 123.464 158.531 125.085 166.972C127.265 178.489 125.7 187.881 120.389 194.925Z" fill="#FCFDFE"/>
<path d="M163.042 127.559L162.707 127.335C171.931 113.75 187.976 107.545 199.884 104.693L199.996 105.085C188.2 107.88 172.211 114.086 163.042 127.559Z" fill="#FCFDFE"/>
<path d="M170.088 90.6611L169.696 90.717C167.516 72.3799 154.099 58.4035 146.216 51.6948L146.439 51.4153C154.378 58.1799 167.907 72.2122 170.088 90.6611Z" fill="#FCFDFE"/>
<path d="M104.739 28.158L126.486 208.79C126.822 211.473 124.921 213.933 122.349 214.212L31.782 224.164C26.2473 224.499 23.2284 221.648 22.837 218.797L0.027481 26.7604C-0.307954 23.8533 2.43143 21.2816 8.02201 21.2816L99.372 23.1824C102 23.2383 104.404 25.4745 104.739 28.158Z" fill="url(#paint2_linear_7538_14774)"/>
<path d="M108.819 27.8789L130.678 209.405C131.013 212.144 129.112 214.548 126.485 214.828L32.619 224.164C29.656 224.443 26.9725 222.319 26.6371 219.412L3.71572 26.3694C3.38028 23.5182 5.56061 21.1702 8.52361 21.2261L103.396 22.8473C106.023 22.9032 108.483 25.1395 108.819 27.8789Z" fill="url(#paint3_linear_7538_14774)"/>
<path d="M107.028 37.8858L127.266 206.218C127.546 208.734 125.813 211.026 123.353 211.25L35.1335 219.859C32.3941 220.139 29.8784 218.126 29.5988 215.443L8.41055 37.1031C8.07512 34.4197 10.0877 32.2393 12.883 32.2952L102.053 33.2456C104.457 33.2456 106.693 35.3701 107.028 37.8858Z" fill="url(#paint4_linear_7538_14774)"/>
<path d="M59.6768 27.7671C59.7886 28.7175 59.1177 29.5002 58.1114 29.5002C57.161 29.5002 56.2665 28.7175 56.1547 27.7112C56.0429 26.7608 56.7138 25.9781 57.7201 25.9781C58.7264 25.9781 59.565 26.7608 59.6768 27.7671Z" fill="url(#paint5_linear_7538_14774)"/>
<g opacity="0.3">
<g style="mix-blend-mode:multiply" opacity="0.3">
<path d="M91.7673 150.871C73.7097 117.44 46.7072 107.488 38.6009 73.0505C34.1844 54.4339 37.2033 36.6558 42.2348 21.8408L8.52361 21.2818C5.56061 21.2259 3.38028 23.518 3.71572 26.4251L26.6371 219.468C26.9725 222.375 29.656 224.499 32.619 224.22L106.415 216.896C106.974 186.875 99.8177 165.742 91.7673 150.871Z" fill="url(#paint6_linear_7538_14774)"/>
</g>
</g>
<path d="M74.3315 102.95C85.9545 96.7276 89.5643 80.8263 82.3941 67.434C75.224 54.0417 59.9892 48.2296 48.3661 54.4525C36.7431 60.6754 33.1333 76.5766 40.3035 89.9689C47.4736 103.361 62.7084 109.173 74.3315 102.95Z" fill="white"/>
<path d="M67.63 90.4307C73.2645 87.414 75.0205 79.7167 71.552 73.2383C68.0836 66.7598 60.7041 63.9536 55.0695 66.9703C49.4349 69.987 47.6789 77.6843 51.1474 84.1627C54.6159 90.6411 61.9954 93.4474 67.63 90.4307Z" fill="white"/>
<path d="M71.0293 123.366C68.5695 123.422 66.1096 122.807 64.0411 121.577C57.6678 117.719 48.1639 111.402 39.6662 103.128C28.8764 92.6178 22.6708 81.8839 21.3291 71.3736V71.2059L20.9937 26.3135C20.9937 17.4804 26.7519 10.2686 37.5977 5.5166C46.5426 1.60319 58.4505 -0.297603 70.9734 0.0378313C83.3845 0.373266 94.8452 2.94493 103.343 7.19377C113.462 12.2812 118.717 19.3812 118.717 27.823L118.493 70.6468V70.8145C117.263 80.8776 111.561 91.276 101.442 101.786C93.3357 110.228 84.2231 116.881 77.9057 121.074C75.8931 122.527 73.4892 123.254 71.0293 123.366Z" fill="url(#paint7_linear_7538_14774)"/>
<path d="M73.4903 123.366C71.0304 123.422 68.6265 122.807 66.558 121.577C60.2406 117.719 50.9043 111.402 42.5185 103.128C31.8405 92.6178 25.7468 81.8839 24.405 71.3736V71.2059L24.1255 26.3135C24.1255 17.4804 29.8279 10.2686 40.5618 5.5166C49.3949 1.60319 61.1351 -0.297603 73.4903 0.0378313C85.7336 0.373266 97.0825 2.94493 105.468 7.19377C115.42 12.2812 120.675 19.3812 120.675 27.823L120.451 70.6468V70.8145C119.221 80.8776 113.575 91.276 103.623 101.786C95.629 110.228 86.6281 116.881 80.4226 121.074C78.2982 122.527 75.9501 123.254 73.4903 123.366Z" fill="url(#paint8_linear_7538_14774)"/>
<path d="M27.0874 26.3693L27.3669 70.9821C30.3299 93.7358 57.0529 112.185 68.6813 119.173C72.0356 121.186 76.2845 121.074 79.5829 118.893C90.9877 111.402 116.257 92.5058 118.996 70.5908L119.22 27.8788C119.22 -3.81976 27.0874 -6.72686 27.0874 26.3693Z" fill="url(#paint9_linear_7538_14774)"/>
<path d="M74.1614 112.297C73.9378 112.297 73.6024 112.241 73.3228 112.073C68.5149 109.166 59.2346 103.072 51.1282 95.1336C42.4069 86.5241 37.3754 78.1942 36.2014 70.3673L35.9219 26.4813C35.9219 22.2884 39.2762 18.6545 45.8172 15.8033C53.0849 12.5608 63.4834 10.8836 74.1614 11.1632C84.7835 11.4427 94.8465 13.5671 101.779 17.0333C107.928 20.1081 111.059 23.686 111.059 27.7672L110.836 70.0878C109.773 77.691 105.021 85.8532 96.7473 94.4627C88.9205 102.569 79.8079 108.942 75.0559 112.073C74.6646 112.241 74.385 112.297 74.1614 112.297Z" fill="url(#paint10_linear_7538_14774)"/>
<g style="mix-blend-mode:screen" opacity="0.9">
<path d="M73.0429 109.278C68.1791 106.315 59.5696 100.557 52.0782 93.121C43.8601 85.0147 39.1081 77.2997 37.99 70.0879L37.7104 26.4814C37.7104 23.4625 40.5057 20.7231 45.9286 18.3191C52.8609 15.2443 62.7562 13.6231 73.0429 13.9026C83.2736 14.1262 92.8894 16.1388 99.4863 19.4373C104.63 21.953 107.201 24.7483 107.201 27.7113L106.978 69.9202C105.915 76.8525 101.443 84.4556 93.6162 92.5061C86.3485 100.053 77.8508 106.091 73.0429 109.278Z" fill="white"/>
</g>
<g filter="url(#filter0_d_7538_14774)">
<path fill-rule="evenodd" clip-rule="evenodd" d="M98.2515 45.4878L68.6629 74.0551C66.6526 75.996 63.3231 75.996 61.2501 74.0551L46.4872 59.8018C44.4769 57.8609 44.4769 54.6463 46.4872 52.6448C48.4975 50.7039 51.827 50.7039 53.9 52.6448L65.0193 63.3803L90.9015 38.3915C92.9117 36.4506 96.2412 36.4506 98.3143 38.3915C100.262 40.3323 100.262 43.5469 98.2515 45.4878Z" fill="url(#paint11_linear_7538_14774)"/>
</g>
<path d="M104.683 225.059C104.683 225.059 97.1361 228.469 97.0243 229.028C96.9125 229.587 101.888 228.86 103.901 228.916C105.913 228.972 107.59 228.413 107.423 227.519C107.255 226.68 106.528 224.5 106.528 224.5L104.683 225.059Z" fill="url(#paint12_linear_7538_14774)"/>
<path d="M104.403 222.263L104.851 225.673C104.851 225.673 106.025 226.121 106.863 225.617L107.199 221.872L104.403 222.263Z" fill="url(#paint13_linear_7538_14774)"/>
<path d="M140.015 222.375L140.91 223.773C141.133 224.164 141.245 224.667 141.133 225.114C140.798 226.288 140.239 228.581 139.959 229.195C139.568 230.034 134.704 230.481 134.704 230.481C134.704 230.481 134.257 229.866 135.263 229.14C136.269 228.413 136.94 228.301 137.276 227.183C137.611 226.065 137.891 222.99 137.891 222.99L140.015 222.375Z" fill="url(#paint14_linear_7538_14774)"/>
<path d="M136.378 218.797C136.713 219.077 138.279 223.829 138.279 223.829C138.279 223.829 138.782 224.5 139.732 223.493C140.683 222.543 140.18 223.046 140.18 223.046L140.012 218.35L136.378 218.797Z" fill="url(#paint15_linear_7538_14774)"/>
<path d="M100.267 153.89C99.8752 164.065 99.8752 175.079 100.434 186.875C101.105 200.125 102.391 212.424 104.068 223.549C104.683 223.549 105.354 223.549 106.025 223.549C106.472 223.549 106.919 223.493 107.367 223.493C108.205 221.201 109.267 218.126 110.162 214.548C111.112 210.747 111.727 207.336 112.119 204.038C113.572 192.521 111.895 191.515 113.069 183.017C114.131 175.47 115.585 175.191 117.374 164.457C119.275 152.828 117.877 151.095 117.15 150.424C114.187 147.741 107.367 149.53 100.267 153.89Z" fill="url(#paint16_linear_7538_14774)"/>
<path opacity="0.3" d="M117.148 150.424C114.353 147.853 107.98 149.418 101.271 153.332C109.042 161.717 109.88 167.14 108.93 170.662C107.868 174.632 104.681 175.806 104.681 180.166C104.681 185.533 109.545 186.931 109.433 192.577C109.377 196.323 107.253 196.267 106.75 200.907C106.135 206.386 108.93 208.287 108.036 212.312C107.644 214.045 106.526 216.337 103.395 218.685C103.619 220.363 103.843 221.984 104.122 223.605C104.737 223.605 105.408 223.605 106.079 223.605C106.526 223.605 106.973 223.549 107.421 223.549C108.259 221.257 109.321 218.182 110.216 214.604C111.166 210.803 111.781 207.392 112.173 204.094C113.626 192.577 111.949 191.571 113.123 183.073C114.185 175.526 115.639 175.247 117.428 164.513C119.217 152.773 117.819 151.039 117.148 150.424Z" fill="url(#paint17_linear_7538_14774)"/>
<path d="M105.073 153.723C111.726 163.506 118.938 175.638 125.367 190.173C130.231 201.131 133.753 211.474 136.325 220.642C136.66 220.81 137.499 221.145 138.561 220.978C140.014 220.81 140.853 219.859 141.077 219.636C142.139 213.039 142.027 207.448 141.636 203.423C141.412 200.851 141.021 196.547 139.343 191.236C137.499 185.31 136.213 184.974 133.809 178.657C131.293 172.116 131.908 170.495 129.56 162.332C128.554 158.978 126.932 154.002 124.249 148.021C117.876 149.977 111.446 151.822 105.073 153.723Z" fill="url(#paint18_linear_7538_14774)"/>
<path d="M73.4871 84.2878C73.4871 84.2878 72.2012 82.7224 71.3626 81.6043C70.5241 80.4303 66.7225 77.2437 66.7225 77.2437C66.7225 77.2437 66.4429 77.7468 67.2815 78.5854C68.1201 79.424 69.7973 80.8216 69.4618 81.4366C69.0705 82.0515 68.0083 82.6106 68.791 83.7287C69.6296 84.8468 70.9713 84.0641 71.6981 84.9586C72.4249 85.8531 73.1516 86.8594 73.1516 86.8594L73.4871 84.2878Z" fill="url(#paint19_linear_7538_14774)"/>
<path d="M73.7133 82.6106C72.8747 83.6728 71.9802 84.7909 71.1416 85.8531C72.2597 90.6051 74.6078 97.817 80.0865 104.805C85.9007 112.241 98.2559 123.31 105.971 119.676C110.667 117.44 116.984 109.837 114.748 106.203C112.568 102.681 103.064 104.358 96.5787 102.848C90.0937 101.451 81.8196 96.8107 73.7133 82.6106Z" fill="url(#paint20_linear_7538_14774)"/>
<path d="M133.138 110.787C133.138 110.787 138.169 127.95 135.038 134.547C131.908 141.144 121.957 133.876 121.957 133.876L133.138 110.787Z" fill="url(#paint21_linear_7538_14774)"/>
<path opacity="0.3" d="M132.188 110.843C132.188 110.843 137.219 128.006 134.088 134.603C130.958 141.2 121.006 133.932 121.006 133.932L132.188 110.843Z" fill="url(#paint22_linear_7538_14774)"/>
<path d="M117.483 104.47C110.998 104.358 106.022 104.581 103.227 107.433C100.32 110.452 103.395 113.75 102.948 121.577C102.221 133.541 94.6736 136.615 94.3941 148.691C94.2823 152.772 95.0649 156.071 95.624 158.083C97.3571 160.096 100.152 163.003 104.233 165.351C110.159 168.817 113.57 168.09 122.012 170.215C135.876 173.681 137.162 178.153 143.982 176.868C150.859 175.582 156.785 169.6 156.002 166.469C155.499 164.568 152.76 165.183 149.461 162.332C145.268 158.642 146.778 155.064 143.535 151.095C138.895 145.393 132.69 149.082 128.72 144.163C124.751 139.187 126.037 129.124 129.223 123.589C131.292 119.956 132.13 115.763 133.864 112.017C134.031 111.682 134.199 111.178 134.087 110.563C133.752 108.159 129.671 106.93 126.54 105.979C121.788 104.581 117.986 104.47 117.483 104.47Z" fill="url(#paint23_linear_7538_14774)"/>
<path d="M111.169 104.302L112.455 103.855C112.455 103.855 112.846 105.588 116.927 105.7C119.219 105.644 120.673 104.358 120.673 104.358L121.567 104.973C121.567 104.973 119.723 107.433 116.648 107.433C112.678 107.433 111.169 104.302 111.169 104.302Z" fill="url(#paint24_linear_7538_14774)"/>
<path d="M112.171 98.7672C111.836 96.8664 112.898 95.2451 113.122 94.9097C114.072 93.4561 114.352 93.2884 114.743 93.0089L115.302 92.7294H115.358C115.749 92.6175 116.923 92.7294 117.147 92.7853C117.93 93.0089 118.433 96.3073 117.818 100.78C117.874 101.115 117.874 101.507 117.93 101.842C119.663 101.618 120.166 101.786 120.278 102.01C120.445 102.513 119.271 105.476 117.594 106.035C115.526 106.762 112.619 104.861 112.451 104.19C112.395 103.911 112.395 104.134 113.793 103.351C113.904 102.96 114.352 101.842 114.464 101.395C114.184 101.171 112.451 100.165 112.171 98.7672Z" fill="url(#paint25_linear_7538_14774)"/>
<path d="M114.575 97.2579C114.967 96.8106 115.526 97.3138 115.47 97.9287C115.414 98.5437 114.799 99.1028 114.24 98.935C113.625 98.7673 114.072 97.8169 114.575 97.2579Z" fill="url(#paint26_linear_7538_14774)"/>
<path d="M176.239 77.3554C167.798 72.5475 153.821 79.1444 147.504 87.1948C144.541 90.9405 143.591 94.5744 139.23 96.2516C135.931 97.5374 130.117 97.9846 126.148 95.2453C125.645 94.9098 123.576 93.4004 120.669 91.6673C119.383 90.8846 118.097 90.2137 116.588 90.4374C116.197 90.4933 114.911 90.7169 114.352 91.7232C113.905 92.5618 114.072 93.7358 114.575 94.5185C114.855 94.9657 115.023 94.9657 115.079 95.3012C115.302 96.1957 113.793 97.0901 114.072 97.5374C114.24 97.8169 115.023 97.4256 115.302 97.8169C115.582 98.2083 114.799 98.8791 114.743 100.109C114.184 100.836 114.072 102.233 114.464 103.967C115.023 106.482 115.917 108.383 116.812 109.725C121.34 116.21 124.583 120.794 129.335 122.415C135.652 124.596 139.118 119.62 151.865 114.868C169.363 108.383 175.68 112.967 180.768 106.818C187.085 99.1028 185.017 82.331 176.239 77.3554Z" fill="#26264F"/>
<g opacity="0.3">
<g style="mix-blend-mode:multiply" opacity="0.3">
<path d="M139.065 166.637C132.524 162.332 126.654 167.252 122.013 163.45C118.212 160.32 121.343 156.238 117.206 150.704C112.677 144.666 106.472 146.175 104.962 141.647C103.397 136.951 109.602 133.764 109.77 127.279C109.826 123.981 108.372 119.62 102.391 114.477C102.726 116.378 103.061 118.67 102.838 121.633C102.111 133.597 94.5637 136.671 94.2842 148.747C94.1724 152.828 94.9551 156.127 95.5141 158.139C97.2472 160.152 100.043 163.059 104.124 165.407C110.05 168.873 113.46 168.146 121.902 170.271C135.766 173.737 137.052 178.209 143.873 176.924C145.829 176.532 147.73 175.805 149.463 174.799C147.506 174.464 145.997 173.793 144.879 173.01C141.972 170.942 142.475 168.873 139.065 166.637Z" fill="url(#paint27_linear_7538_14774)"/>
</g>
</g>
<defs>
<filter id="filter0_d_7538_14774" x="44.9795" y="36.9358" width="55.7876" height="41.575" filterUnits="userSpaceOnUse" color-interpolation-filters="sRGB">
<feFlood flood-opacity="0" result="BackgroundImageFix"/>
<feColorMatrix in="SourceAlpha" type="matrix" values="0 0 0 0 0 0 0 0 0 0 0 0 0 0 0 0 0 0 127 0" result="hardAlpha"/>
<feOffset dx="1" dy="3"/>
<feColorMatrix type="matrix" values="0 0 0 0 0.929412 0 0 0 0 0.109804 0 0 0 0 0.141176 0 0 0 1 0"/>
<feBlend mode="normal" in2="BackgroundImageFix" result="effect1_dropShadow_7538_14774"/>
<feBlend mode="normal" in="SourceGraphic" in2="effect1_dropShadow_7538_14774" result="shape"/>
</filter>
<linearGradient id="paint0_linear_7538_14774" x1="99.4635" y1="28.8558" x2="121.557" y2="106.562" gradientUnits="userSpaceOnUse">
<stop offset="0.00359712" stop-color="#79D3E7"/>
<stop offset="1" stop-color="#146BA4"/>
</linearGradient>
<linearGradient id="paint1_linear_7538_14774" x1="135.013" y1="57.5563" x2="181.636" y2="355.613" gradientUnits="userSpaceOnUse">
<stop stop-color="#FEB7BF"/>
<stop offset="1" stop-color="#F06960"/>
</linearGradient>
<linearGradient id="paint2_linear_7538_14774" x1="62.1374" y1="118.059" x2="26.465" y2="121.95" gradientUnits="userSpaceOnUse">
<stop stop-color="#444B8C"/>
<stop offset="0.9964" stop-color="#26264F"/>
</linearGradient>
<linearGradient id="paint3_linear_7538_14774" x1="93.5666" y1="28.1397" x2="5.35908" y2="328.435" gradientUnits="userSpaceOnUse">
<stop stop-color="#444B8C"/>
<stop offset="0.9964" stop-color="#26264F"/>
</linearGradient>
<linearGradient id="paint4_linear_7538_14774" x1="29.5199" y1="219.493" x2="102.072" y2="34.2061" gradientUnits="userSpaceOnUse">
<stop stop-color="#CCC5FF"/>
<stop offset="0.9964" stop-color="#6572EB"/>
</linearGradient>
<linearGradient id="paint5_linear_7538_14774" x1="60.5126" y1="20.7432" x2="-43.155" y2="301.51" gradientUnits="userSpaceOnUse">
<stop stop-color="#FFC444"/>
<stop offset="0.9964" stop-color="#F36F56"/>
</linearGradient>
<linearGradient id="paint6_linear_7538_14774" x1="55.0624" y1="224.204" x2="55.0624" y2="21.2669" gradientUnits="userSpaceOnUse">
<stop stop-color="#CCC5FF"/>
<stop offset="0.9964" stop-color="#6572EB"/>
</linearGradient>
<linearGradient id="paint7_linear_7538_14774" x1="127.272" y1="-3.34855" x2="99.0826" y2="23.7458" gradientUnits="userSpaceOnUse">
<stop stop-color="#FF767E"/>
<stop offset="1" stop-color="#ED1C24"/>
</linearGradient>
<linearGradient id="paint8_linear_7538_14774" x1="50.3944" y1="85.8361" x2="2.23452" y2="166.102" gradientUnits="userSpaceOnUse">
<stop stop-color="#FF767E"/>
<stop offset="1" stop-color="#ED1C24"/>
</linearGradient>
<linearGradient id="paint9_linear_7538_14774" x1="94.2996" y1="92.0564" x2="16.4789" y2="-64.4251" gradientUnits="userSpaceOnUse">
<stop stop-color="#FF767E"/>
<stop offset="1" stop-color="#ED1C24"/>
</linearGradient>
<linearGradient id="paint10_linear_7538_14774" x1="35.9173" y1="61.6994" x2="111.057" y2="61.6994" gradientUnits="userSpaceOnUse">
<stop stop-color="#FF767E"/>
<stop offset="1" stop-color="#ED1C24"/>
</linearGradient>
<linearGradient id="paint11_linear_7538_14774" x1="72.3733" y1="36.9358" x2="72.3733" y2="109.054" gradientUnits="userSpaceOnUse">
<stop stop-color="#FF767E"/>
<stop offset="1" stop-color="#ED1C24"/>
</linearGradient>
<linearGradient id="paint12_linear_7538_14774" x1="101.03" y1="213.154" x2="102.909" y2="237.065" gradientUnits="userSpaceOnUse">
<stop offset="0.003597" stop-color="#26264F"/>
<stop offset="1" stop-color="#444B8C"/>
</linearGradient>
<linearGradient id="paint13_linear_7538_14774" x1="105.879" y1="226.466" x2="105.534" y2="201.428" gradientUnits="userSpaceOnUse">
<stop stop-color="#FEB7BF"/>
<stop offset="1" stop-color="#F06960"/>
</linearGradient>
<linearGradient id="paint14_linear_7538_14774" x1="136.532" y1="210.365" x2="138.411" y2="234.275" gradientUnits="userSpaceOnUse">
<stop offset="0.003597" stop-color="#26264F"/>
<stop offset="1" stop-color="#444B8C"/>
</linearGradient>
<linearGradient id="paint15_linear_7538_14774" x1="138.413" y1="226.017" x2="138.071" y2="201.253" gradientUnits="userSpaceOnUse">
<stop stop-color="#FEB7BF"/>
<stop offset="1" stop-color="#F06960"/>
</linearGradient>
<linearGradient id="paint16_linear_7538_14774" x1="99.9695" y1="186.348" x2="118.28" y2="186.348" gradientUnits="userSpaceOnUse">
<stop stop-color="#26264F"/>
<stop offset="1" stop-color="#444B8C"/>
</linearGradient>
<linearGradient id="paint17_linear_7538_14774" x1="101.234" y1="186.349" x2="118.278" y2="186.349" gradientUnits="userSpaceOnUse">
<stop offset="0.003597" stop-color="#26264F"/>
<stop offset="1" stop-color="#444B8C"/>
</linearGradient>
<linearGradient id="paint18_linear_7538_14774" x1="105.052" y1="184.544" x2="141.912" y2="184.544" gradientUnits="userSpaceOnUse">
<stop stop-color="#26264F"/>
<stop offset="1" stop-color="#444B8C"/>
</linearGradient>
<linearGradient id="paint19_linear_7538_14774" x1="68.1069" y1="75.4959" x2="78.8749" y2="105.596" gradientUnits="userSpaceOnUse">
<stop stop-color="#FEB7BF"/>
<stop offset="1" stop-color="#F06960"/>
</linearGradient>
<linearGradient id="paint20_linear_7538_14774" x1="94.1995" y1="100.828" x2="113.049" y2="172.126" gradientUnits="userSpaceOnUse">
<stop offset="0.00359712" stop-color="#EBEFF2"/>
<stop offset="1" stop-color="white"/>
</linearGradient>
<linearGradient id="paint21_linear_7538_14774" x1="121.765" y1="124.303" x2="135.998" y2="123.992" gradientUnits="userSpaceOnUse">
<stop offset="0.00359712" stop-color="#EBEFF2"/>
<stop offset="1" stop-color="white"/>
</linearGradient>
<linearGradient id="paint22_linear_7538_14774" x1="120.831" y1="124.323" x2="135.065" y2="124.013" gradientUnits="userSpaceOnUse">
<stop offset="0.003597" stop-color="#F36F56"/>
<stop offset="1" stop-color="#FFC444"/>
</linearGradient>
<linearGradient id="paint23_linear_7538_14774" x1="108.513" y1="97.0425" x2="127.362" y2="168.34" gradientUnits="userSpaceOnUse">
<stop offset="0.00359712" stop-color="#EBEFF2"/>
<stop offset="1" stop-color="white"/>
</linearGradient>
<linearGradient id="paint24_linear_7538_14774" x1="112.59" y1="99.0131" x2="118.407" y2="107.826" gradientUnits="userSpaceOnUse">
<stop stop-color="#FEB7BF"/>
<stop offset="1" stop-color="#F06960"/>
</linearGradient>
<linearGradient id="paint25_linear_7538_14774" x1="117.206" y1="95.8671" x2="114.202" y2="108.018" gradientUnits="userSpaceOnUse">
<stop stop-color="#FEB7BF"/>
<stop offset="1" stop-color="#F06960"/>
</linearGradient>
<linearGradient id="paint26_linear_7538_14774" x1="114.706" y1="95.0738" x2="114.661" y2="106.447" gradientUnits="userSpaceOnUse">
<stop stop-color="#FEB7BF"/>
<stop offset="1" stop-color="#F06960"/>
</linearGradient>
<linearGradient id="paint27_linear_7538_14774" x1="104.481" y1="98.1089" x2="123.331" y2="169.407" gradientUnits="userSpaceOnUse">
<stop offset="0.003597" stop-color="#F36F56"/>
<stop offset="1" stop-color="#FFC444"/>
</linearGradient>
</defs>
</svg>
