<svg width="441" height="440" viewBox="0 0 441 440" fill="none" xmlns="http://www.w3.org/2000/svg">
<path d="M425.383 170.23C420.637 111.547 418.264 82.3128 407.153 63.327C375.438 8.95866 283.314 -3.98619 225.17 0.976C147.177 7.5563 58.0732 52.4318 18.915 138.839C-16.6833 217.371 -0.28649 306.259 53.4347 364.403C151.816 470.982 354.942 451.996 404.456 381.986C424.197 354.047 425.707 309.495 427.757 244.016C428.728 212.516 426.786 187.382 425.383 170.23Z" fill="white"/>
<path d="M388.066 35.9272C382.996 31.7201 375.337 29.4548 368.973 29.0233C323.234 25.7871 316.546 121.471 323.558 142.83C330.57 164.189 326.039 171.201 290.009 182.42C253.979 193.639 271.239 215.106 275.662 227.727C280.085 240.348 288.715 250.92 262.501 263.541C236.18 276.054 245.349 283.821 245.349 283.821C245.349 283.821 293.785 333.443 291.196 317.586C288.499 301.728 293.353 277.78 336.826 275.946C355.596 275.191 384.183 266.238 390.547 246.173C392.058 241.535 393.029 234.415 391.95 229.561C390.44 222.872 386.017 217.587 383.536 211.222C377.818 196.551 392.166 185.764 400.364 175.947C404.679 170.769 408.994 165.591 412.23 159.658C419.026 147.469 416.545 134.524 409.102 123.305C405.542 117.911 400.58 112.194 399.069 105.829C397.451 98.9255 398.854 89.5405 399.285 82.5287C399.609 77.0271 400.148 71.4177 399.825 65.9161C398.854 55.4524 396.48 42.8311 388.066 35.9272Z" fill="url(#paint0_linear_7538_14579)"/>
<g opacity="0.8">
<g opacity="0.8">
<path opacity="0.8" d="M241.356 311.653C241.032 311.761 240.709 311.653 240.493 311.329C240.277 311.005 240.493 310.574 240.817 310.466C241.032 310.358 261.421 299.571 284.182 281.987C305.109 265.698 332.509 240.025 343.513 210.144C352.79 185.225 361.204 144.017 366.598 96.9839C371.452 54.9131 372.207 23.7376 370.157 17.9124C370.05 17.5888 370.265 17.1573 370.589 17.0494C370.913 16.9415 371.344 17.1573 371.452 17.4809C373.933 24.277 372.315 59.2281 367.892 97.0918C362.39 144.125 353.976 185.44 344.699 210.575C333.48 240.78 305.972 266.669 284.829 283.066C262.176 300.757 241.68 311.545 241.356 311.653C241.464 311.653 241.356 311.653 241.356 311.653Z" fill="white"/>
</g>
<g opacity="0.8">
<path opacity="0.8" d="M366.596 105.074C366.272 105.182 365.841 105.074 365.733 104.75C365.517 104.319 348.473 58.3643 326.467 48.0084C326.143 47.9006 326.035 47.4691 326.143 47.1454C326.251 46.8218 326.682 46.714 327.006 46.8218C349.552 57.3935 366.272 102.377 366.919 104.319C367.135 104.642 367.027 104.966 366.596 105.074Z" fill="white"/>
</g>
<g opacity="0.8">
<path opacity="0.8" d="M358.294 158.364C358.078 158.472 357.754 158.364 357.539 158.149C357.323 157.825 357.323 157.393 357.646 157.178C357.754 157.07 370.376 146.714 385.801 138.084C406.729 126.434 422.802 123.09 433.482 128.375C433.805 128.591 433.913 128.915 433.805 129.238C433.59 129.562 433.266 129.67 432.942 129.562C408.239 117.48 358.941 157.717 358.509 158.149C358.402 158.256 358.402 158.364 358.294 158.364Z" fill="white"/>
</g>
<g opacity="0.8">
<path opacity="0.8" d="M303.595 267.208C303.487 267.208 303.487 267.208 303.379 267.208C303.055 267.208 302.732 266.885 302.732 266.561C302.732 266.345 302.408 246.712 298.309 225.893C294.533 206.907 286.766 183.067 271.017 177.565C270.693 177.457 270.477 177.026 270.585 176.702C270.693 176.379 271.125 176.163 271.448 176.271C284.609 180.801 293.994 197.522 299.603 225.677C303.702 246.604 304.134 266.345 304.134 266.561C304.026 266.885 303.81 267.1 303.595 267.208Z" fill="white"/>
</g>
<g opacity="0.8">
<path opacity="0.8" d="M331.542 235.386C331.219 235.494 331.003 235.386 330.787 235.17C330.571 234.846 330.679 234.415 330.895 234.199C333.052 232.581 384.508 194.825 404.573 198.385C404.896 198.493 405.22 198.817 405.112 199.14C405.004 199.464 404.681 199.787 404.357 199.68C384.832 196.12 332.297 234.846 331.758 235.278C331.65 235.278 331.65 235.386 331.542 235.386Z" fill="white"/>
</g>
</g>
<path d="M428.193 176.811C424.848 171.201 418.484 166.455 412.551 163.866C370.588 145.312 331.861 233.121 331.214 255.667C330.567 278.212 323.879 283.282 286.231 281.556C248.475 279.938 257.536 306.044 257.32 319.312C257.213 332.688 261.743 345.633 232.833 348.546C203.815 351.458 209.856 361.814 209.856 361.814C209.856 361.814 238.658 424.921 241.571 409.063C244.376 393.206 257.105 372.278 298.636 385.331C316.543 390.94 346.532 392.235 359.261 375.514C362.282 371.631 365.626 365.266 366.165 360.304C366.92 353.508 364.655 347.036 364.439 340.24C364.008 324.49 381.16 319.204 392.163 312.732C397.988 309.388 403.705 305.828 408.775 301.513C419.347 292.344 421.289 279.291 418.052 266.238C416.542 259.982 413.737 252.97 414.493 246.389C415.248 239.378 419.778 230.963 422.583 224.491C424.741 219.421 427.114 214.351 428.732 209.065C431.86 198.925 433.802 186.304 428.193 176.811Z" fill="url(#paint1_linear_7538_14579)"/>
<g opacity="0.8">
<g opacity="0.8">
<path opacity="0.8" d="M196.907 386.734C196.583 386.734 196.259 386.518 196.259 386.194C196.259 385.871 196.475 385.439 196.799 385.439C197.014 385.439 219.884 382.203 247.284 373.25C272.526 365.051 306.938 350.057 327.434 325.785C344.586 305.397 366.484 269.475 387.519 227.189C406.397 189.217 417.616 160.199 417.616 154.05C417.616 153.726 417.94 153.403 418.263 153.403C418.587 153.403 418.911 153.726 418.911 154.05C418.911 161.278 405.642 193.64 388.706 227.836C367.671 270.23 345.664 306.26 328.513 326.756C307.801 351.351 273.173 366.454 247.715 374.652C220.099 383.498 197.23 386.626 196.907 386.734Z" fill="white"/>
</g>
<g opacity="0.8">
<path opacity="0.8" d="M384.611 234.847C384.288 234.847 383.964 234.524 383.964 234.2C383.964 233.661 383.425 184.686 366.273 167.426C366.057 167.21 366.057 166.779 366.273 166.455C366.488 166.239 366.92 166.239 367.244 166.455C384.827 184.039 385.366 232.042 385.366 234.092C385.366 234.524 385.043 234.847 384.611 234.847Z" fill="white"/>
</g>
<g opacity="0.8">
<path opacity="0.8" d="M358.828 281.988C358.504 281.988 358.288 281.772 358.18 281.556C358.073 281.233 358.288 280.801 358.612 280.693C358.72 280.585 374.038 275.192 391.621 272.279C415.246 268.396 431.535 270.769 439.841 279.291C440.057 279.507 440.057 279.938 439.841 280.262C439.625 280.478 439.194 280.478 438.87 280.262C419.776 260.521 359.691 281.772 359.151 281.988C358.936 281.988 358.828 281.988 358.828 281.988Z" fill="white"/>
</g>
<g opacity="0.8">
<path opacity="0.8" d="M270.477 365.914C270.369 365.914 270.369 365.914 270.262 365.914C269.938 365.806 269.722 365.375 269.83 365.051C269.938 364.835 276.195 346.173 279.323 325.246C282.236 306.044 282.883 281.017 269.938 270.446C269.614 270.23 269.614 269.798 269.83 269.475C270.046 269.151 270.477 269.151 270.801 269.367C281.588 278.105 284.932 296.983 280.617 325.353C277.489 346.389 271.125 365.159 271.017 365.375C271.017 365.806 270.801 365.914 270.477 365.914Z" fill="white"/>
</g>
<g opacity="0.8">
<path opacity="0.8" d="M307.591 345.418C307.267 345.418 307.051 345.202 306.944 344.986C306.836 344.663 307.051 344.231 307.375 344.123C309.964 343.368 371.128 325.138 388.82 335.386C389.143 335.601 389.251 336.033 389.036 336.356C388.82 336.68 388.388 336.788 388.065 336.572C370.913 326.648 308.346 345.31 307.699 345.418C307.699 345.418 307.699 345.418 307.591 345.418Z" fill="white"/>
</g>
</g>
<path d="M287.52 18.6669L287.088 22.1189C285.47 22.2268 283.852 22.4425 282.342 22.7661L281.047 19.5299C280.723 18.6669 279.645 18.2354 278.782 18.5591L273.28 20.8244C272.417 21.148 271.986 22.2268 272.309 23.0898L273.604 26.326C272.309 27.189 271.015 28.1598 269.828 29.2386L267.024 27.0811C266.268 26.5417 265.19 26.6496 264.542 27.4047L260.767 32.1512C260.12 32.9063 260.335 33.985 261.09 34.6323L263.895 36.7897C263.14 38.1921 262.493 39.7023 262.061 41.2126L258.501 40.7811C257.531 40.6732 256.668 41.3204 256.56 42.2913L255.697 48.3322C255.589 49.3031 256.236 50.1661 257.207 50.274L260.767 50.7055C260.767 52.3236 260.983 53.9417 261.306 55.4519L257.962 56.8543C257.099 57.1779 256.668 58.2566 256.991 59.1196L259.257 64.729C259.58 65.592 260.659 66.0235 261.522 65.6999L264.866 64.2976C265.729 65.6999 266.7 66.9944 267.779 68.181L265.513 71.0936C264.866 71.8487 265.082 73.0353 265.837 73.5747L270.583 77.3503C271.338 77.9975 272.417 77.7818 273.064 77.0267L275.222 74.1141C276.624 74.8692 278.135 75.5164 279.645 75.9479L279.105 79.5078C278.997 80.4786 279.645 81.3416 280.616 81.5574L286.657 82.3125C287.627 82.4204 288.49 81.7731 288.598 80.8022L289.138 77.2424C290.756 77.1345 292.374 76.9188 293.992 76.5952L295.286 79.9393C295.61 80.8022 296.689 81.2337 297.552 80.9101L303.161 78.5369C304.024 78.1054 304.456 77.1345 304.132 76.1637L302.838 72.9275C304.24 72.0645 305.534 70.9857 306.721 69.907L309.418 72.0645C310.173 72.7117 311.252 72.496 311.899 71.7408L315.567 66.8865C316.106 66.1314 315.998 64.9448 315.243 64.4054L312.546 62.248C313.301 60.8456 313.949 59.3354 314.38 57.7173L317.832 58.1487C318.803 58.2566 319.666 57.6094 319.774 56.6385L320.313 50.7055C320.421 49.7346 319.774 48.8716 318.803 48.7637L315.459 48.3322C315.351 46.7141 315.135 45.096 314.812 43.4779L317.94 42.1834C318.803 41.8598 319.234 40.7811 318.911 39.9181L316.645 34.3086C316.322 33.4456 315.243 33.0141 314.38 33.3378L311.252 34.6323C310.389 33.2299 309.418 32.0433 308.339 30.8567L310.389 28.1598C310.928 27.4047 310.82 26.326 310.065 25.6787L305.319 22.011C304.564 21.4717 303.485 21.5795 302.945 22.3346L300.788 25.0315C299.386 24.2764 297.875 23.737 296.365 23.1976L296.797 19.7457C296.905 18.7748 296.257 17.9118 295.286 17.8039L289.353 17.0488C288.49 17.0488 287.627 17.6961 287.52 18.6669ZM266.592 46.7141C268.318 34.848 279.213 26.4338 290.971 28.052C302.73 29.5622 311.036 40.4574 309.418 52.3236C307.8 64.2976 296.905 72.8196 285.038 71.2015C273.172 69.6912 264.866 58.6881 266.592 46.7141Z" fill="#D8DEE8"/>
<path d="M196.8 16.833L196.045 22.2267C193.564 22.3346 191.083 22.6582 188.709 23.1975L186.66 18.2354C186.12 16.833 184.502 16.1858 183.208 16.833L174.578 20.3928C173.176 20.9322 172.528 22.5503 173.068 23.8448L175.117 28.9149C173.068 30.2093 171.018 31.7196 169.292 33.4456L164.977 30.1015C163.791 29.2385 162.172 29.4542 161.202 30.6408L155.484 37.9763C154.513 39.1629 154.729 40.8888 155.916 41.7518L160.231 45.0959C159.044 47.2534 158.073 49.5187 157.318 51.892L151.817 51.1369C150.306 50.9211 149.012 51.9998 148.796 53.5101L147.394 62.7872C147.178 64.2975 148.149 65.5919 149.659 65.8077L155.161 66.5628C155.268 69.0439 155.484 71.525 156.024 73.8982L150.846 76.0557C149.443 76.5951 148.796 78.2132 149.335 79.6155L152.787 88.3533C153.327 89.7557 154.945 90.4029 156.347 89.8635L161.525 87.7061C162.82 89.8635 164.33 91.8053 165.948 93.6391L162.496 98.0619C161.525 99.2486 161.741 100.975 162.928 101.945L170.263 107.771C171.45 108.741 173.176 108.418 174.039 107.231L177.49 102.808C179.648 103.995 181.913 104.966 184.394 105.721L183.639 111.223C183.424 112.733 184.502 114.135 185.905 114.351L195.182 115.537C196.692 115.753 198.094 114.675 198.31 113.164L199.065 107.663C201.654 107.555 204.135 107.231 206.509 106.692L208.558 111.762C209.097 113.164 210.716 113.812 212.118 113.272L220.856 109.604C222.258 109.065 222.905 107.447 222.366 105.937L220.316 100.867C222.474 99.4643 224.416 97.9541 226.249 96.2281L230.457 99.5722C231.643 100.543 233.369 100.219 234.232 99.0328L239.949 91.4817C240.812 90.295 240.597 88.569 239.41 87.5982L235.203 84.362C236.39 82.0966 237.253 79.8313 238.116 77.3502L243.401 77.9974C244.912 78.2132 246.206 77.1344 246.422 75.6242L247.608 66.3471C247.824 64.8368 246.745 63.5423 245.235 63.3266L239.949 62.6793C239.842 60.0904 239.518 57.6093 238.979 55.2361L243.833 53.1865C245.235 52.6471 245.882 51.029 245.235 49.6266L241.675 40.9967C241.136 39.5944 239.518 38.9471 238.223 39.5944L233.369 41.644C232.075 39.5944 230.564 37.5448 228.838 35.7109L232.075 31.5038C232.938 30.3172 232.722 28.6991 231.535 27.7282L224.2 22.1188C223.013 21.2558 221.395 21.4716 220.424 22.6582L217.188 26.8653C215.031 25.7865 212.765 24.8157 210.392 24.0605L211.147 18.7747C211.363 17.2645 210.284 15.97 208.882 15.7543L199.712 14.5676C198.418 14.3519 197.016 15.3228 196.8 16.833ZM164.546 60.1982C167.135 41.8597 184.071 28.9149 202.301 31.2881C220.532 33.6613 233.261 50.4896 230.78 68.8282C228.299 87.3824 211.363 100.543 193.024 98.0619C174.686 95.6887 161.957 78.6447 164.546 60.1982Z" fill="#D8DEE8"/>
<path d="M188.059 68.6132L148.038 400.972C147.39 405.935 150.842 410.465 155.697 410.897L322.254 429.235C332.502 429.882 338.003 424.705 338.65 419.311L380.721 66.0242C381.368 60.7384 376.298 55.9919 366.05 55.9919L197.983 59.5518C193.129 59.5518 188.706 63.651 188.059 68.6132Z" fill="url(#paint2_linear_7538_14579)"/>
<path d="M180.619 68.0756L140.382 402.161C139.735 407.123 143.187 411.654 148.041 412.193L320.747 429.345C326.141 429.884 331.103 426.001 331.75 420.607L373.929 65.3788C374.576 60.093 370.585 55.778 365.083 55.8859L190.436 58.7985C185.689 58.9064 181.159 63.1134 180.619 68.0756Z" fill="url(#paint3_linear_7538_14579)"/>
<path d="M183.856 86.5199L146.639 396.226C146.1 400.864 149.336 405.071 153.867 405.503L316.217 421.252C321.287 421.792 325.818 418.124 326.465 413.162L365.515 85.0097C366.055 80.0475 362.387 76.0561 357.317 76.164L193.241 77.89C188.602 77.9979 184.395 81.8813 183.856 86.5199Z" fill="#D8DEE8"/>
<path d="M270.911 67.8578C270.695 69.5837 271.99 71.094 273.716 70.9861C275.55 70.9861 277.168 69.4759 277.384 67.7499C277.599 65.916 276.305 64.5137 274.471 64.6216C272.745 64.6216 271.127 66.0239 270.911 67.8578Z" fill="url(#paint4_linear_7538_14579)"/>
<g style="mix-blend-mode:soft-light" opacity="0.3">
<path d="M211.901 294.393C245.126 232.905 294.856 214.566 309.742 151.136C317.833 116.94 312.331 84.1466 303.054 56.8545L365.081 55.7758C370.583 55.6679 374.574 59.9829 373.927 65.2687L331.748 420.497C331.101 425.783 326.139 429.774 320.745 429.235L185.04 415.751C183.961 360.735 197.122 321.793 211.901 294.393Z" fill="white"/>
</g>
<path d="M16.6484 103.348C16.6484 70.6625 45.1271 44.2334 79.3231 44.2334C112.548 44.2334 138.654 69.368 138.654 100.22C138.654 131.18 112.44 157.609 79.3231 159.227C45.1271 161.061 16.6484 136.034 16.6484 103.348Z" fill="url(#paint5_linear_7538_14579)"/>
<path d="M20.3174 100.759C20.3174 68.0734 47.9331 41.6443 81.1582 41.6443C113.412 41.6443 138.763 66.7789 138.763 97.6308C138.763 128.591 113.305 155.02 81.1582 156.638C47.9331 158.364 20.3174 133.337 20.3174 100.759Z" fill="url(#paint6_linear_7538_14579)"/>
<g opacity="0.5">
<path opacity="0.5" d="M29.8096 100.436C29.8096 73.0357 53.0024 50.7058 80.9417 50.7058C108.018 50.7058 129.377 71.7412 129.377 97.7388C129.377 123.736 108.018 145.958 80.9417 147.361C53.0024 148.979 29.8096 127.943 29.8096 100.436Z" fill="white"/>
</g>
<path opacity="0.5" d="M79.0031 55.0203C106.079 55.0203 127.438 76.0557 127.438 102.053C127.438 108.202 126.252 114.243 123.987 119.745C127.438 113.056 129.38 105.613 129.38 97.8462C129.38 71.8486 108.021 50.8132 80.9449 50.8132C59.478 50.8132 40.7079 64.0817 33.2646 82.636C41.6788 66.2392 59.1544 55.0203 79.0031 55.0203Z" fill="white"/>
<path d="M57.7471 93.7477V117.696C57.7471 124.6 63.5723 130.101 70.6919 129.885L88.4911 129.454C95.6108 129.238 101.328 123.521 101.328 116.725V92.9926L57.7471 93.7477ZM74.1439 118.559L77.488 108.526C76.0856 107.771 75.1147 106.369 75.1147 104.643C75.1147 102.162 77.1644 100.112 79.7533 100.112C82.3423 100.112 84.3919 102.054 84.3919 104.427C84.3919 106.045 83.421 107.556 82.0187 108.311L85.2549 118.127L74.1439 118.559Z" fill="white"/>
<path d="M96.2596 90.943C94.4257 90.943 92.8076 89.5407 92.8076 87.7068C92.8076 80.695 86.8746 74.9777 79.647 75.0856C72.3116 75.1935 66.3785 81.0186 66.3785 88.1383C66.3785 89.9722 64.8683 91.4824 62.9266 91.4824C60.9848 91.4824 59.4746 90.08 59.4746 88.2462C59.4746 77.4588 68.536 68.6132 79.647 68.5053C90.758 68.3974 99.7115 76.9194 99.7115 87.5989C99.7115 89.4328 98.2013 90.943 96.2596 90.943Z" fill="white"/>
<path d="M137.463 227.511C137.463 227.511 136.277 222.981 137.14 221.794C138.003 220.608 143.181 215.969 142.749 217.479C142.21 218.989 141.455 219.96 141.455 219.96C141.455 219.96 144.259 221.255 142.426 223.197C140.592 225.138 140.052 225.57 139.944 227.404C139.837 229.345 138.65 229.885 137.463 227.511Z" fill="url(#paint7_linear_7538_14579)"/>
<path d="M87.1985 423.087C87.1985 423.087 86.5512 426.971 86.6591 428.373C86.767 429.775 102.193 430.53 102.409 429.452C102.517 428.373 99.8197 426.755 97.9858 426.108C96.0441 425.568 90.4347 423.95 90.4347 423.95L87.1985 423.087Z" fill="url(#paint8_linear_7538_14579)"/>
<path d="M90.8622 419.203L90.3228 424.057C90.3228 424.057 88.489 425.244 86.9787 424.381L86.2236 419.095L90.8622 419.203Z" fill="url(#paint9_linear_7538_14579)"/>
<path d="M59.5803 429.452C59.5803 429.452 58.9331 433.335 59.0409 434.737C59.1488 436.14 74.5748 436.895 74.7905 435.816C74.8984 434.737 72.2015 433.119 70.3677 432.472C68.426 431.933 62.8165 430.315 62.8165 430.315L59.5803 429.452Z" fill="url(#paint10_linear_7538_14579)"/>
<path d="M63.2499 425.568L62.7105 430.422C62.7105 430.422 60.8767 431.609 59.3664 430.746L58.6113 425.46L63.2499 425.568Z" fill="url(#paint11_linear_7538_14579)"/>
<path d="M88.0585 292.02C89.8923 295.688 91.6183 299.248 93.4522 302.915C94.8545 323.627 95.6097 346.065 95.1782 370.229C94.8545 388.136 93.8837 405.072 92.4813 421.037C90.1081 420.929 87.627 420.821 85.2538 420.714C81.6939 413.702 77.5947 403.238 77.2711 390.185C76.8396 376.593 80.9388 374.759 80.7231 361.814C80.3994 344.986 73.2798 340.455 69.5042 320.175C68.1018 312.408 67.131 302.268 68.2097 289.97C74.8979 290.618 81.4782 291.265 88.0585 292.02Z" fill="url(#paint12_linear_7538_14579)"/>
<path opacity="0.3" d="M68.2095 289.97C71.7693 290.294 75.3291 290.726 78.9968 291.049C85.4693 302.268 87.1952 313.918 86.1165 319.096C84.4984 326.432 80.2913 328.697 80.5071 336.033C80.7228 343.26 85.0378 345.202 87.7346 353.724C89.5685 359.657 89.137 365.051 88.0582 375.73C85.9007 397.197 80.7228 403.777 85.0378 410.789C86.2244 412.839 88.4897 415.212 92.8047 416.938C92.6968 418.232 92.5889 419.527 92.4811 420.821C90.1078 420.714 87.6267 420.606 85.2535 420.498C81.6937 413.486 77.5945 403.022 77.2708 389.969C76.8393 376.377 80.9386 374.544 80.7228 361.599C80.3992 344.77 73.2795 340.24 69.5039 319.959C67.9937 312.3 67.0228 302.16 68.2095 289.97Z" fill="url(#paint13_linear_7538_14579)"/>
<path d="M78.4626 298.493C75.1186 316.831 72.0981 336.356 69.8327 357.176C67.028 382.311 65.5178 405.935 64.9784 427.833C62.2816 427.941 59.6926 427.941 56.9958 428.049C46.532 407.337 45.8848 393.206 47.395 384.037C47.9344 380.477 49.5525 373.573 49.8761 363.217C50.0918 355.99 49.6603 350.488 49.121 343.908C47.8265 329.453 46.3163 326.324 46.1005 315.213C45.8848 304.857 45.8848 299.572 48.7973 296.551C56.6721 288.568 76.9524 297.846 78.4626 298.493Z" fill="url(#paint14_linear_7538_14579)"/>
<path d="M136.067 226.864C137.793 226.757 139.627 226.649 141.353 226.541C145.56 243.369 142.539 259.766 133.154 265.807C118.376 275.192 91.0837 257.501 85.1506 238.191C82.5616 229.669 83.101 217.479 88.3868 215.106C89.7892 214.459 92.0545 214.351 96.9089 217.048C111.364 225.138 111.795 240.564 119.131 241.859C122.367 242.398 127.653 240.349 136.067 226.864Z" fill="url(#paint15_linear_7538_14579)"/>
<path d="M95.5029 306.583C98.0918 302.376 94.8556 298.277 94.1005 290.294C93.2375 281.233 96.7973 279.723 100.249 264.62C102.515 254.588 104.78 244.987 102.083 233.769C100.789 228.375 98.6312 219.206 91.08 214.783C87.1966 212.517 81.8029 212.733 71.3391 213.273C58.3943 213.92 51.814 214.243 46.9597 216.832C46.2045 217.156 31.5337 225.247 30.455 238.299C29.3762 251.568 43.9392 253.402 45.8809 271.093C46.7439 279.076 45.2337 291.265 44.1549 299.248C43.1841 306.907 42.5368 308.849 44.0471 311.114C47.7148 316.723 58.8258 315.105 81.0478 311.869C89.8934 310.683 93.5611 309.712 95.5029 306.583Z" fill="url(#paint16_linear_7538_14579)"/>
<path d="M61.7413 268.288C60.7705 271.74 57.4264 274.329 55.0532 282.743C54.5138 284.577 50.954 297.522 55.5925 300.65C58.2894 302.484 60.7705 299.032 67.3508 298.601C78.7854 297.846 84.1791 307.338 91.6224 304.749C92.9169 304.318 94.6428 303.347 96.3688 301.082C96.6925 303.131 96.6924 304.857 95.6137 306.583C93.672 309.712 90.0043 310.683 81.2665 311.977C59.0445 315.105 47.9335 316.723 44.2658 311.222C42.7556 308.957 43.4028 306.907 44.3737 299.356C45.3445 291.373 46.9626 279.183 46.0996 271.201C44.1579 253.509 29.7028 251.676 30.6737 238.407C30.9973 234.847 32.2918 231.719 34.0178 228.914C52.3563 236.25 64.6539 257.393 61.7413 268.288Z" fill="url(#paint17_linear_7538_14579)"/>
<path d="M38.4419 294.393L42.1096 296.766C42.7568 296.011 44.267 294.501 46.6403 293.962C49.3371 293.422 52.4655 294.177 52.4655 295.04C52.5733 295.688 50.6316 296.443 50.308 296.551C47.9348 297.414 46.2088 296.658 45.2379 297.629C44.9143 297.953 44.4828 298.6 43.5119 299.14C43.2962 299.247 42.9726 299.463 42.8647 299.463C41.2466 300.11 38.6576 297.306 38.334 297.09L38.4419 294.393Z" fill="url(#paint18_linear_7538_14579)"/>
<path d="M49.3334 246.174C52.0303 239.81 53.8641 230.101 49.657 215.538C21.9335 226.541 7.80202 252.323 13.4115 272.819C17.9422 289.755 34.4468 297.954 38.2224 299.679C39.0854 297.738 39.9484 295.796 40.8114 293.854C36.4964 289.108 31.75 282.096 32.3972 274.006C33.2602 262.895 43.9397 259.119 49.3334 246.174Z" fill="url(#paint19_linear_7538_14579)"/>
<path d="M70.6906 200.112C70.6906 200.112 70.4749 204.966 68.9646 208.634C67.5623 211.87 60.4426 213.92 59.0402 214.675C57.6379 215.43 61.7371 217.587 65.9442 218.019C70.1512 218.45 82.0173 217.48 84.1748 215.861C86.3323 214.243 82.4488 214.351 79.4284 213.272C76.4079 212.194 74.6819 206.368 75.2213 203.672C75.8685 201.083 70.6906 200.112 70.6906 200.112Z" fill="url(#paint20_linear_7538_14579)"/>
<path d="M77.3781 198.386C79.5356 196.228 79.8592 196.012 80.0749 195.257C81.0458 192.345 78.7805 188.245 75.76 187.275C75.6521 187.275 73.6025 186.627 72.8474 187.49C72.2001 188.245 73.171 189.216 72.7395 190.727C72.308 192.021 71.1214 192.129 68.9639 193.963C67.238 195.365 66.0513 196.336 65.8356 197.631C65.2962 200.219 68.4246 203.995 71.2293 203.887C72.2001 203.671 72.4159 203.24 77.3781 198.386Z" fill="url(#paint21_linear_7538_14579)"/>
<path d="M71.4474 204.103C71.4474 204.103 73.7128 206.692 77.2726 205.829C80.401 205.074 79.6458 197.846 77.2726 196.66C76.5175 196.228 75.1151 196.336 74.0364 196.768C73.3892 197.091 73.2813 197.415 72.2025 197.846C71.2317 198.278 70.9081 198.17 70.6923 198.494C70.3687 198.925 70.2608 199.68 71.2317 201.622C70.4766 201.083 69.7215 200.975 69.29 201.298C69.1821 201.298 69.0742 201.514 68.9663 201.838C68.6427 202.916 69.6136 203.887 71.4474 204.103Z" fill="url(#paint22_linear_7538_14579)"/>
<path d="M334.442 106.476L335.305 110.899H318.585L173.602 111.223C169.827 111.223 166.482 114.351 165.943 118.127L131.316 349.408C130.776 353.184 136.709 359.117 140.485 359.332L204.778 364.295V364.187L301.001 371.522L301.217 371.63C305.316 371.954 309.092 368.933 309.631 364.942L341.993 118.019C342.533 114.027 338.541 106.476 334.442 106.476Z" fill="url(#paint23_linear_7538_14579)"/>
<path d="M306.288 360.198C305.749 364.189 301.973 367.317 297.874 366.994L136.926 354.588C133.258 354.265 130.669 350.92 131.209 347.145L162.708 113.382C163.247 109.607 166.699 106.478 170.367 106.478L332.178 106.047C336.277 106.047 339.189 109.283 338.758 113.275L306.288 360.198Z" fill="url(#paint24_linear_7538_14579)"/>
<path d="M308.441 231.61C308.226 233.659 306.284 235.062 304.234 235.062L162.596 229.884C160.762 229.776 159.36 228.266 159.683 226.324L162.488 205.72C162.704 203.778 164.43 202.484 166.372 202.592L308.118 206.475C310.167 206.583 311.57 207.986 311.354 209.927L308.441 231.61Z" fill="white"/>
<path d="M302.944 273.573C302.728 275.622 300.786 277.241 298.736 277.241L157.206 270.229C155.372 270.121 154.078 268.395 154.294 266.453L157.098 245.418C157.314 243.476 159.04 241.858 160.982 241.966L302.62 247.683C304.67 247.791 306.072 249.625 305.856 251.567L302.944 273.573Z" fill="white"/>
<path opacity="0.1" d="M311.36 209.927C311.037 209.819 310.713 209.711 310.281 209.711L168.535 205.828C166.701 205.72 164.975 207.123 164.652 208.956L161.847 229.56C161.847 229.668 161.847 229.668 161.847 229.668C160.445 229.237 159.474 227.942 159.69 226.216L162.494 205.612C162.71 203.671 164.436 202.376 166.378 202.484L308.124 206.367C310.066 206.583 311.468 207.986 311.36 209.927Z" fill="url(#paint25_linear_7538_14579)"/>
<path opacity="0.1" d="M305.857 251.027C305.533 250.919 305.102 250.811 304.778 250.811L163.14 245.094C161.306 244.986 159.58 246.712 159.256 248.546L156.452 269.581C156.452 269.689 156.452 269.797 156.452 270.013C155.049 269.581 154.078 267.963 154.294 266.345L157.099 245.31C157.315 243.368 159.041 241.75 160.982 241.858L302.621 247.575C304.454 247.683 305.857 249.193 305.857 251.027Z" fill="url(#paint26_linear_7538_14579)"/>
<path d="M265.297 307.553C265.729 304.425 263.464 301.512 260.335 301.296L187.089 297.089C184.069 296.873 181.264 299.462 180.832 302.591L177.812 325.352C177.38 328.481 179.538 331.393 182.558 331.609L255.805 336.571C258.933 336.787 261.953 334.09 262.385 330.962L265.297 307.553Z" fill="url(#paint27_linear_7538_14579)"/>
<path d="M270.797 154.049C269.826 161.384 266.05 167.857 260.765 172.711C255.047 177.889 247.496 181.125 239.621 180.909C231.854 180.802 225.274 177.35 220.959 172.064C217.076 167.102 215.134 160.629 216.105 153.402C218.047 138.515 231.747 126.433 246.849 126.541C262.059 126.541 272.846 138.839 270.797 154.049Z" fill="url(#paint28_linear_7538_14579)"/>
<path d="M256.235 145.743C255.372 152.323 249.331 157.501 242.75 157.393C236.278 157.285 231.639 152 232.502 145.527C233.365 139.055 239.298 133.877 245.879 133.877C252.459 133.877 257.098 139.163 256.235 145.743Z" fill="white"/>
<path d="M260.767 172.711C255.05 177.889 247.498 181.125 239.624 180.91C231.857 180.802 225.276 177.35 220.961 172.064C225.816 165.376 233.798 160.845 242.213 160.953C250.842 161.061 257.746 165.807 260.767 172.711Z" fill="white"/>
<g style="mix-blend-mode:soft-light" opacity="0.4">
<path d="M338.649 113.272L306.286 360.195C305.747 364.187 301.756 367.207 297.656 366.883L201.002 359.44C196.363 354.694 192.587 349.084 189.891 342.288C188.596 338.944 187.625 335.384 186.978 331.609C185.144 321.145 185.899 309.279 188.488 297.736C190.538 288.783 193.666 279.937 197.657 271.954C200.894 265.59 204.669 259.765 208.876 254.803C211.897 251.243 215.241 247.899 218.693 244.447C222.9 240.347 227.323 236.464 231.961 232.473C242.749 223.303 254.183 214.35 264.863 204.965C289.458 183.174 309.307 158.795 304.56 124.06C304.453 122.981 302.942 114.567 301.001 105.937L331.852 105.829C336.06 106.045 339.188 109.281 338.649 113.272Z" fill="white"/>
</g>
<defs>
<linearGradient id="paint0_linear_7538_14579" x1="294.256" y1="317.026" x2="408.906" y2="7.38185" gradientUnits="userSpaceOnUse">
<stop offset="0.3701" stop-color="#79D3E7"/>
<stop offset="1" stop-color="#146BA4"/>
</linearGradient>
<linearGradient id="paint1_linear_7538_14579" x1="299.584" y1="358.446" x2="384.602" y2="146.44" gradientUnits="userSpaceOnUse">
<stop stop-color="#58B7F5"/>
<stop offset="0.9965" stop-color="#173DBD"/>
</linearGradient>
<linearGradient id="paint2_linear_7538_14579" x1="266.446" y1="234.031" x2="332.087" y2="241.192" gradientUnits="userSpaceOnUse">
<stop stop-color="#444B8C"/>
<stop offset="0.9964" stop-color="#26264F"/>
</linearGradient>
<linearGradient id="paint3_linear_7538_14579" x1="208.613" y1="68.5693" x2="370.926" y2="621.153" gradientUnits="userSpaceOnUse">
<stop stop-color="#444B8C"/>
<stop offset="0.9964" stop-color="#26264F"/>
</linearGradient>
<linearGradient id="paint4_linear_7538_14579" x1="269.437" y1="54.9566" x2="460.198" y2="571.604" gradientUnits="userSpaceOnUse">
<stop stop-color="#FEB7BF"/>
<stop offset="0.9964" stop-color="#F06960"/>
</linearGradient>
<linearGradient id="paint5_linear_7538_14579" x1="-1397.2" y1="1492.46" x2="-1266.72" y2="1369.42" gradientUnits="userSpaceOnUse">
<stop offset="0.000261781" stop-color="#26264F"/>
<stop offset="1" stop-color="#444B8C"/>
</linearGradient>
<linearGradient id="paint6_linear_7538_14579" x1="39.9145" y1="135.114" x2="144.474" y2="40.2289" gradientUnits="userSpaceOnUse">
<stop stop-color="#FF767E"/>
<stop offset="1" stop-color="#ED1C24"/>
</linearGradient>
<linearGradient id="paint7_linear_7538_14579" x1="145.847" y1="217.621" x2="125.126" y2="238.711" gradientUnits="userSpaceOnUse">
<stop stop-color="#FEB7BF"/>
<stop offset="0.9964" stop-color="#F06960"/>
</linearGradient>
<linearGradient id="paint8_linear_7538_14579" x1="94.4919" y1="417.953" x2="94.6657" y2="371.165" gradientUnits="userSpaceOnUse">
<stop stop-color="#CCC5FF"/>
<stop offset="0.9964" stop-color="#6572EB"/>
</linearGradient>
<linearGradient id="paint9_linear_7538_14579" x1="89.8524" y1="432.987" x2="87.6249" y2="408.81" gradientUnits="userSpaceOnUse">
<stop stop-color="#FEB7BF"/>
<stop offset="0.9964" stop-color="#F06960"/>
</linearGradient>
<linearGradient id="paint10_linear_7538_14579" x1="66.9047" y1="417.85" x2="67.0796" y2="371.061" gradientUnits="userSpaceOnUse">
<stop stop-color="#CCC5FF"/>
<stop offset="0.9964" stop-color="#6572EB"/>
</linearGradient>
<linearGradient id="paint11_linear_7538_14579" x1="61.8999" y1="435.563" x2="59.6723" y2="411.386" gradientUnits="userSpaceOnUse">
<stop stop-color="#FEB7BF"/>
<stop offset="0.9964" stop-color="#F06960"/>
</linearGradient>
<linearGradient id="paint12_linear_7538_14579" x1="89.0079" y1="311.167" x2="71.8586" y2="398.844" gradientUnits="userSpaceOnUse">
<stop offset="0.000261781" stop-color="#26264F"/>
<stop offset="1" stop-color="#444B8C"/>
</linearGradient>
<linearGradient id="paint13_linear_7538_14579" x1="97.5661" y1="354.04" x2="71.8012" y2="356.105" gradientUnits="userSpaceOnUse">
<stop offset="0.000261781" stop-color="#26264F"/>
<stop offset="1" stop-color="#444B8C"/>
</linearGradient>
<linearGradient id="paint14_linear_7538_14579" x1="83.3205" y1="358.887" x2="44.2059" y2="362.022" gradientUnits="userSpaceOnUse">
<stop offset="0.000261781" stop-color="#26264F"/>
<stop offset="1" stop-color="#444B8C"/>
</linearGradient>
<linearGradient id="paint15_linear_7538_14579" x1="114.215" y1="229.787" x2="85.277" y2="415.636" gradientUnits="userSpaceOnUse">
<stop stop-color="#CCC5FF"/>
<stop offset="0.9964" stop-color="#6572EB"/>
</linearGradient>
<linearGradient id="paint16_linear_7538_14579" x1="52.6651" y1="433.784" x2="38.6686" y2="621.351" gradientUnits="userSpaceOnUse">
<stop stop-color="#CCC5FF"/>
<stop offset="0.9964" stop-color="#6572EB"/>
</linearGradient>
<linearGradient id="paint17_linear_7538_14579" x1="5.08248" y1="369.83" x2="82.3305" y2="237.51" gradientUnits="userSpaceOnUse">
<stop stop-color="#CCC5FF"/>
<stop offset="0.9964" stop-color="#6572EB"/>
</linearGradient>
<linearGradient id="paint18_linear_7538_14579" x1="32.4668" y1="278.34" x2="48.7585" y2="300.349" gradientUnits="userSpaceOnUse">
<stop stop-color="#FEB7BF"/>
<stop offset="0.9964" stop-color="#F06960"/>
</linearGradient>
<linearGradient id="paint19_linear_7538_14579" x1="18.4691" y1="431.232" x2="4.47267" y2="618.799" gradientUnits="userSpaceOnUse">
<stop stop-color="#CCC5FF"/>
<stop offset="0.9964" stop-color="#6572EB"/>
</linearGradient>
<linearGradient id="paint20_linear_7538_14579" x1="78.7291" y1="223.498" x2="63.0448" y2="203.984" gradientUnits="userSpaceOnUse">
<stop stop-color="#FEB7BF"/>
<stop offset="0.9964" stop-color="#F06960"/>
</linearGradient>
<linearGradient id="paint21_linear_7538_14579" x1="66.8014" y1="216.33" x2="75.1142" y2="188.983" gradientUnits="userSpaceOnUse">
<stop stop-color="#444B8C"/>
<stop offset="0.9964" stop-color="#3E4177"/>
</linearGradient>
<linearGradient id="paint22_linear_7538_14579" x1="88.0045" y1="206.788" x2="64.6229" y2="196.38" gradientUnits="userSpaceOnUse">
<stop stop-color="#FEB7BF"/>
<stop offset="0.9964" stop-color="#F06960"/>
</linearGradient>
<linearGradient id="paint23_linear_7538_14579" x1="131.207" y1="239.072" x2="342.026" y2="239.072" gradientUnits="userSpaceOnUse">
<stop offset="0.000261781" stop-color="#26264F"/>
<stop offset="1" stop-color="#444B8C"/>
</linearGradient>
<linearGradient id="paint24_linear_7538_14579" x1="259.379" y1="653.718" x2="234.241" y2="218.296" gradientUnits="userSpaceOnUse">
<stop offset="0.003597" stop-color="#ED1C24"/>
<stop offset="1" stop-color="#FF767E"/>
</linearGradient>
<linearGradient id="paint25_linear_7538_14579" x1="159.648" y1="216.146" x2="311.331" y2="216.146" gradientUnits="userSpaceOnUse">
<stop offset="0.003597" stop-color="#ED1C24"/>
<stop offset="1" stop-color="#FF767E"/>
</linearGradient>
<linearGradient id="paint26_linear_7538_14579" x1="154.285" y1="255.941" x2="305.849" y2="255.941" gradientUnits="userSpaceOnUse">
<stop offset="0.003597" stop-color="#ED1C24"/>
<stop offset="1" stop-color="#FF767E"/>
</linearGradient>
<linearGradient id="paint27_linear_7538_14579" x1="228.784" y1="270.634" x2="194.902" y2="485.493" gradientUnits="userSpaceOnUse">
<stop offset="0.003597" stop-color="#ED1C24"/>
<stop offset="1" stop-color="#FF767E"/>
</linearGradient>
<linearGradient id="paint28_linear_7538_14579" x1="239.926" y1="46.927" x2="247.162" y2="262.398" gradientUnits="userSpaceOnUse">
<stop offset="0.003597" stop-color="#ED1C24"/>
<stop offset="1" stop-color="#FF767E"/>
</linearGradient>
</defs>
</svg>
